# xmcd CD database file
#
# Track frame offsets:
#	150
#	25117
#	48700
#	61285
#	91707
#	108457
#	139132
#	157984
#	194857
#	216387
#	227385
#	269592
#	299662
#
# Disc length: 4376 seconds
#
# Revision: 2
# Processed by: cddbd v1.5.2PL0 Copyright (c) Steve Scherf et al.
# Submitted via: CDex 1.70beta2
#
DISCID=c611160d
DTITLE=B.B KING - HOW BLUE CAN YOU GET? [CD-2 1976-1994)
DYEAR=1964
DGENRE=Blues
TTITLE0=LET THE GOOD TIMES ROLL
TTITLE1=I GOT SOME HELP I DON'T NEED
TTITLE2=CALADONIA
TTITLE3=NIGHT LIFE
TTITLE4=NEVER MAKE A MOVE TOO SOON - CRUSADERS
TTITLE5=ALL OVER AGAIN (I'VE GOT A MIND TO GIVE UP LIVING)
TTITLE6=PLEASE SEND ME SOMEONE TO LOVE (WITH GLADYS KNIGHT)
TTITLE7=NOBODY LOVES ME BUT MY MOTHER
TTITLE8=WHEN LOVE COMES TO TOWN
TTITLE9=PAYING THE COST TO BE THE BOSS
TTITLE10=AIN'T NOBODY'S BUSINESS (WITH GLADYS KNIGHT)
TTITLE11=T-BONE SHUFFLE (WITH JOE LOUIS WALKER)
TTITLE12=ROCK ME BABY (WITH GLADYS KNIGHT)
EXTD=YEAR: 1964
EXTT0=
EXTT1=
EXTT2=
EXTT3=
EXTT4=
EXTT5=
EXTT6=
EXTT7=
EXTT8=
EXTT9=
EXTT10=
EXTT11=
EXTT12=
PLAYORDER=
